# xmcd
#
# Track frame offsets:
# 150
# 13379
# 32193
# 43866
# 57281
# 69448
# 82381
# 97225
# 107999
# 133486
# 145629
# 157218
# 171762
# 186986
# 201377
# 216114
# 232678
# 248628
# 269926
# 276300
# 285493
#
# Disc length: 3993 seconds
#
#
# Revision: 0
# Processed by: cddbd v1.5.1PL2 Copyright (c) Steve Scherf et al.
# Submitted via: FreeRIP 2.945 
#
DISCID=590f9715
DTITLE=César Menotti and Fabiano - Palavras de Amor
DYEAR=2006
DGENRE=Country
TTITLE0=Como um Anjo
TTITLE1=Tentei te esquecer - Coração em Pedaços
TTITLE2=Fica comigo
TTITLE3=Sem medo de ser feliz
TTITLE4=Mensagem pra ela
TTITLE5=Esperando na janela
TTITLE6=Leilão
TTITLE7=Aqui não
TTITLE8=Lugar melhor que BH - Magia e Mistério
TTITLE9=Bão tamém
TTITLE10=Sempre seu homem
TTITLE11=Paixão mineira
TTITLE12=Amargurado
TTITLE13=Na hora do Adeus
TTITLE14=Caso marcado
TTITLE15=Nova York - O que tiver que vir virá
TTITLE16=Me apaixonei - a primeira vez que te vi
TTITLE17=Cana verde - erguei as mãos
TTITLE18=Entre tapas e Beijos
TTITLE19=Eu vou ficar
TTITLE20=Palavras de Amor
EXTD=
EXTT0=
EXTT1=
EXTT2=
EXTT3=
EXTT4=
EXTT5=
EXTT6=
EXTT7=
EXTT8=
EXTT9=
EXTT10=
EXTT11=
EXTT12=
EXTT13=
EXTT14=
EXTT15=
EXTT16=
EXTT17=
EXTT18=
EXTT19=
EXTT20=
PLAYORDER=
